<svg width="16" height="16" viewBox="0 0 16 16" fill="none" xmlns="http://www.w3.org/2000/svg">
<g clip-path="url(#clip0_9801_1877)">
<g clip-path="url(#clip1_9801_1877)">
<path d="M7.35374 3.48654V4.75892C7.35374 4.91922 7.42387 5.0695 7.51404 5.17971L7.58417 5.24984C7.69438 5.35003 7.84466 5.41014 8.00496 5.41014C8.36563 5.41014 8.65618 5.1196 8.65618 4.75892V3.48654C10.6499 3.77708 12.2329 5.35003 12.5234 7.35379H11.2611C10.9004 7.35379 10.6098 7.64433 10.6098 8.00501C10.6098 8.16531 10.68 8.31559 10.7701 8.4258L10.8403 8.49593C10.9505 8.59612 11.1008 8.65623 11.2611 8.65623H12.5234C12.4633 9.067 12.3331 9.45773 12.1728 9.82843L13.1646 10.8203C13.5253 10.159 13.7758 9.43769 13.8559 8.65623H15.3587C15.7194 8.65623 16.01 8.36568 16.01 8.00501C16.01 7.64433 15.7194 7.35379 15.3587 7.35379H13.8559C13.5554 4.62868 11.3813 2.48466 8.6662 2.18409V0.651221C8.6662 0.290545 8.37565 0 8.01498 0C7.6543 0 7.36376 0.290545 7.36376 0.651221V2.18409C6.59231 2.27426 5.86094 2.5047 5.20972 2.85535L6.18154 3.82718C6.55223 3.65686 6.95299 3.54665 7.36376 3.48654H7.35374Z" fill="#FF7D6F"/>
<path d="M8.65623 12.5235V11.2511C8.65623 11.0908 8.5861 10.9405 8.48591 10.8303L8.4258 10.7702C8.31559 10.67 8.16531 10.5999 8.00501 10.5999C7.64433 10.5999 7.35379 10.8904 7.35379 11.2511V12.5235C5.36005 12.233 3.77708 10.66 3.48654 8.65626H4.7489C5.10958 8.65626 5.40013 8.36571 5.40013 8.00504C5.40013 7.84474 5.32999 7.69445 5.22981 7.58425L5.16969 7.52414C5.05949 7.42395 4.9092 7.35382 4.7489 7.35382H3.48654C3.54665 6.94305 3.67689 6.55231 3.83719 6.18162L2.84534 5.18976C2.48466 5.851 2.23419 6.57235 2.15404 7.35382H0.651221C0.290545 7.35382 0 7.64436 0 8.00504C0 8.36571 0.290545 8.65626 0.651221 8.65626H2.15404C2.4546 11.3814 4.62868 13.5254 7.34377 13.826V15.3588C7.34377 15.7195 7.63432 16.01 7.99499 16.01C8.35567 16.01 8.64621 15.7195 8.64621 15.3588V13.826C9.41766 13.7358 10.149 13.5054 10.8003 13.1447L9.82843 12.1729C9.45773 12.3432 9.05698 12.4534 8.64621 12.5135L8.65623 12.5235Z" fill="#FF7D6F"/>
<path d="M2.29427 1.37254C2.0438 1.12207 1.62301 1.12207 1.37254 1.37254C1.12207 1.62301 1.12207 2.0438 1.37254 2.29427L13.7157 14.6374C13.8459 14.7677 14.0062 14.8278 14.1766 14.8278C14.3469 14.8278 14.5072 14.7677 14.6374 14.6374C14.8879 14.3869 14.8879 13.9662 14.6374 13.7157L2.29427 1.37254Z" fill="#FF7D6F"/>
</g>
</g>
<defs>
<clipPath id="clip0_9801_1877">
<rect width="16" height="16" fill="white"/>
</clipPath>
<clipPath id="clip1_9801_1877">
<rect width="16" height="16" fill="white"/>
</clipPath>
</defs>
</svg>
