<svg width="16" height="16" viewBox="0 0 16 16" fill="none" xmlns="http://www.w3.org/2000/svg">
<g clip-path="url(#clip0_9801_390)">
<g clip-path="url(#clip1_9801_390)">
<path d="M12.12 8.34498C12.76 8.34498 13.49 8.05498 14.25 7.18498C15.62 5.60498 16.76 2.41498 15.35 1.19498C14.7 0.63498 13.65 0.61498 12.38 1.13498C11.33 1.56498 10.28 2.31498 9.57 3.12498C8.15 4.76498 8.75 6.02498 9.4 6.77498L8.38 7.84498L7.37 6.79498C7.64 6.43498 7.8 6.00498 7.84 5.53498C7.88 4.90498 7.68 4.28498 7.26 3.80498L4.24 0.35498L0 3.99498L3.02 7.45498C3.44 7.93498 4.02 8.22498 4.65 8.26498C4.7 8.26498 4.76 8.26498 4.82 8.26498C5.25 8.26498 5.67 8.15498 6.02 7.93498L7.05 9.23498L3.01 13.465C2.79 13.695 2.68 13.995 2.69 14.325C2.71 14.685 2.88 15.045 3.17 15.295C3.43 15.515 3.75 15.645 4.08 15.645C4.12 15.645 4.16 15.645 4.2 15.645C4.52 15.615 4.81 15.465 5.01 15.215L8.39 10.935L11.67 15.075C11.86 15.315 12.14 15.465 12.46 15.495C12.5 15.495 12.54 15.495 12.58 15.495C12.91 15.495 13.23 15.365 13.49 15.145C13.78 14.895 13.96 14.535 13.97 14.175C13.98 13.855 13.87 13.555 13.66 13.325L9.73 9.22498L10.77 7.91498C11.15 8.14498 11.61 8.33498 12.13 8.33498L12.12 8.34498ZM3.76 6.80498L1.4 4.09498L4.14 1.74498L6.51 4.45498C6.76 4.73498 6.88 5.09498 6.85 5.46498C6.83 5.82498 6.67 6.14498 6.42 6.37498L6.24 6.53498L5.73 6.94498C5.15 7.45498 4.27 7.39498 3.76 6.81498V6.80498ZM10.33 3.77498C10.93 3.08498 11.86 2.42498 12.77 2.05498C13.26 1.85498 13.7 1.74498 14.06 1.74498C14.34 1.74498 14.57 1.80498 14.72 1.93498C15.45 2.56498 14.8 5.06498 13.52 6.53498C12.6 7.59498 11.82 7.61498 10.66 6.61498C9.5 5.60498 9.41 4.83498 10.34 3.77498H10.33ZM4.23 14.595C4.23 14.595 4.16 14.645 4.1 14.655C4.02 14.655 3.9 14.625 3.82 14.555C3.74 14.485 3.68 14.385 3.68 14.285C3.68 14.225 3.69 14.185 3.72 14.155L8.68 8.96498L4.23 14.595ZM12.94 14.015C12.94 14.015 12.98 14.085 12.98 14.135C12.98 14.225 12.92 14.325 12.83 14.405C12.74 14.485 12.63 14.525 12.54 14.515C12.49 14.515 12.45 14.495 12.43 14.465L9.01 10.135L9.1 10.015L12.94 14.015Z" fill="#F5F5F5"/>
<path d="M3.33996 3.92499C3.15996 3.71499 2.84996 3.69499 2.63996 3.87499C2.42996 4.05499 2.40996 4.36499 2.58996 4.57499L4.00996 6.22499C4.10996 6.33499 4.24996 6.39499 4.37996 6.39499C4.48996 6.39499 4.60996 6.35499 4.69996 6.27499C4.90996 6.09499 4.92996 5.78499 4.74996 5.57499L3.32996 3.92499H3.33996Z" fill="#F5F5F5"/>
<path d="M5.98005 4.56498L4.56005 2.91498C4.38005 2.70498 4.07005 2.68498 3.86005 2.86498C3.65005 3.04498 3.63005 3.35498 3.81005 3.56498L5.23005 5.21498C5.33005 5.32498 5.47005 5.38498 5.60005 5.38498C5.71005 5.38498 5.83005 5.34498 5.92005 5.26498C6.13005 5.08498 6.15005 4.77498 5.97005 4.56498H5.98005Z" fill="#F5F5F5"/>
</g>
</g>
<defs>
<clipPath id="clip0_9801_390">
<rect width="16" height="16" fill="white"/>
</clipPath>
<clipPath id="clip1_9801_390">
<rect width="16" height="15.29" fill="white" transform="translate(0 0.35498)"/>
</clipPath>
</defs>
</svg>
