<svg width="16" height="16" viewBox="0 0 16 16" fill="none" xmlns="http://www.w3.org/2000/svg">
<g id="Refresh cw" clip-path="url(#clip0_11783_1478)">
<path id="Icon" d="M15.3333 2.66668V6.66668M15.3333 6.66668H11.3333M15.3333 6.66668L12.24 3.76001C11.5235 3.04315 10.6371 2.51948 9.66345 2.23786C8.68983 1.95624 7.66073 1.92584 6.67218 2.14952C5.68363 2.37319 4.76786 2.84363 4.0103 3.51696C3.25274 4.19028 2.6781 5.04453 2.33999 6.00001M0.666656 13.3333V9.33334M0.666656 9.33334H4.66666M0.666656 9.33334L3.75999 12.24C4.47649 12.9569 5.3629 13.4805 6.33653 13.7622C7.31015 14.0438 8.33925 14.0742 9.3278 13.8505C10.3163 13.6268 11.2321 13.1564 11.9897 12.4831C12.7472 11.8097 13.3219 10.9555 13.66 10" stroke="#F5F5F5" stroke-width="1.6" stroke-linecap="round" stroke-linejoin="round"/>
</g>
<defs>
<clipPath id="clip0_11783_1478">
<rect width="16" height="16" fill="white"/>
</clipPath>
</defs>
</svg>
