<svg width="16" height="16" viewBox="0 0 16 16" fill="none" xmlns="http://www.w3.org/2000/svg">
<path d="M13.3921 13.8874H2.66571L0.271241 3.97365C0.162894 3.34524 0.477101 2.73849 1.02967 2.50013C1.52807 2.28344 2.10231 2.43512 2.44902 2.89018L4.55095 5.63136L7.01043 2.2401C7.2488 1.91506 7.60634 1.72003 7.98556 1.72003C8.37561 1.72003 8.72232 1.90422 8.96068 2.22926L11.4527 5.57719L13.5438 2.84684C13.8905 2.40262 14.4539 2.2401 14.9631 2.45679C15.5157 2.69516 15.8299 3.29107 15.7324 3.91948L13.4029 13.8874H13.3921ZM3.78169 12.4789H12.2761L14.1938 4.32036L12.417 6.64983C12.1786 6.96403 11.8319 7.14822 11.4527 7.14822C11.0843 7.14822 10.7267 6.96403 10.4884 6.63899L8.00723 3.29107L5.55858 6.68233C5.32022 7.00737 4.97351 7.2024 4.59429 7.2024C4.24758 7.18073 3.86837 7.02904 3.61917 6.704L1.83144 4.37454L3.79252 12.4897L3.78169 12.4789Z" fill="#FF7D6F"/>
</svg>
