<svg width="16" height="16" viewBox="0 0 16 16" fill="none" xmlns="http://www.w3.org/2000/svg">
<g clip-path="url(#clip0_9801_401)">
<path d="M11.3333 14V12.6667C11.3333 11.9594 11.0523 11.2811 10.5522 10.781C10.0521 10.281 9.37387 10 8.66663 10H3.33329C2.62605 10 1.94777 10.281 1.44767 10.781C0.947578 11.2811 0.666626 11.9594 0.666626 12.6667V14M15.3333 14V12.6667C15.3329 12.0758 15.1362 11.5018 14.7742 11.0349C14.4122 10.5679 13.9054 10.2344 13.3333 10.0867M10.6666 2.08667C11.2402 2.23353 11.7487 2.56713 12.1117 3.03487C12.4748 3.50261 12.6719 4.07789 12.6719 4.67C12.6719 5.26211 12.4748 5.83739 12.1117 6.30513C11.7487 6.77287 11.2402 7.10647 10.6666 7.25333M8.66663 4.66667C8.66663 6.13943 7.47272 7.33333 5.99996 7.33333C4.5272 7.33333 3.33329 6.13943 3.33329 4.66667C3.33329 3.19391 4.5272 2 5.99996 2C7.47272 2 8.66663 3.19391 8.66663 4.66667Z" stroke="#F5F5F5" stroke-width="1.6" stroke-linecap="round" stroke-linejoin="round"/>
</g>
<defs>
<clipPath id="clip0_9801_401">
<rect width="16" height="16" fill="white"/>
</clipPath>
</defs>
</svg>
